<?xml version="1.0" encoding="UTF-8" standalone="no"?>
<!-- Created with Inkscape (http://www.inkscape.org/) -->

<svg
   xmlns:dc="http://purl.org/dc/elements/1.1/"
   xmlns:cc="http://creativecommons.org/ns#"
   xmlns:rdf="http://www.w3.org/1999/02/22-rdf-syntax-ns#"
   xmlns:svg="http://www.w3.org/2000/svg"
   xmlns="http://www.w3.org/2000/svg"
   xmlns:sodipodi="http://sodipodi.sourceforge.net/DTD/sodipodi-0.dtd"
   xmlns:inkscape="http://www.inkscape.org/namespaces/inkscape"
   width="1500.1702"
   height="544.79584"
   viewBox="0 0 1500.1702 544.79584"
   id="svg2"
   version="1.1"
   inkscape:version="0.48.4 r9939"
   sodipodi:docname="drivnal.svg">
  <defs
     id="defs4" />
  <sodipodi:namedview
     id="base"
     pagecolor="#212121"
     bordercolor="#666666"
     borderopacity="1.0"
     inkscape:pageopacity="1"
     inkscape:pageshadow="2"
     inkscape:zoom="0.7"
     inkscape:cx="761.75168"
     inkscape:cy="95.006758"
     inkscape:document-units="px"
     inkscape:current-layer="layer1"
     showgrid="false"
     fit-margin-top="0"
     fit-margin-left="0"
     fit-margin-right="0"
     fit-margin-bottom="0"
     inkscape:window-width="1914"
     inkscape:window-height="998"
     inkscape:window-x="0"
     inkscape:window-y="27"
     inkscape:window-maximized="1" />
  <metadata
     id="metadata7">
    <rdf:RDF>
      <cc:Work
         rdf:about="">
        <dc:format>image/svg+xml</dc:format>
        <dc:type
           rdf:resource="http://purl.org/dc/dcmitype/StillImage" />
        <dc:title />
      </cc:Work>
    </rdf:RDF>
  </metadata>
  <g
     inkscape:label="Drivnal"
     inkscape:groupmode="layer"
     id="layer1"
     transform="translate(-338.40569,-915.98059)">
    <path
       style="fill:#464646;fill-opacity:1"
       d="m 580.86591,1459.7674 c -12.68424,-1.274 -35.96729,-6.0942 -50.04557,-10.3607 -32.36323,-9.8078 -64.55007,-26.8949 -91.35093,-48.4955 -12.61201,-10.1649 -36.81441,-35.0147 -45.74662,-46.9704 -30.85696,-41.3016 -49.558,-88.6341 -54.29606,-137.4237 -1.36139,-14.0187 -1.36139,-42.1338 0,-56.1526 4.73806,-48.7895 23.4391,-96.122 54.29606,-137.4237 8.93221,-11.9556 33.13461,-36.80551 45.74662,-46.97031 40.74674,-32.84064 92.17927,-54.00246 143.32018,-58.96886 14.01878,-1.36139 42.13386,-1.36139 56.15264,0 39.87814,3.87265 84.99764,19.39423 117.50434,40.42275 l 7.2021,4.65901 -3.3914,2.809 c -1.8652,1.5449 -20.4914,17.2755 -41.3914,34.95689 -28.8931,24.44352 -38.4793,32.02762 -40,31.64612 -1.1,-0.2759 -7.85,-2.506 -14.99996,-4.9558 -35.07375,-12.0174 -68.47162,-12.1991 -104.84586,-0.5704 -52.08629,16.6517 -93.97411,58.5395 -110.62579,110.6258 -11.4393,35.782 -11.44397,67.895 -0.0151,103.6445 16.66759,52.136 58.53416,94.0148 110.64088,110.673 35.78201,11.4393 67.89508,11.4439 103.6445,0.015 52.15653,-16.6741 94.01403,-58.5316 110.68813,-110.6881 9.3685,-29.3047 10.9635,-56.3084 5.0274,-85.1132 l -1.79,-8.6855 2.6379,-2.159 c 1.4509,-1.1875 20.1873,-16.9828 41.6365,-35.1007 l 38.9986,-32.9415 2.8538,6.6006 c 7.3683,17.0423 14.6935,43.4673 18.2369,65.7884 2.1498,13.542 2.978,49.9225 1.5016,65.9584 -4.6104,50.0758 -23.098,97.3945 -54.4463,139.3538 -8.9323,11.9557 -33.1347,36.8055 -45.7467,46.9704 -40.7467,32.8406 -92.1792,54.0024 -143.32015,58.9688 -12.80976,1.244 -45.19567,1.1812 -58.07632,-0.1126 z m 178.24416,-355.1081 c -3.1657,-5.6202 -6.3927,-11.1185 -7.1712,-12.2185 -1.338,-1.8908 0.6905,-3.7746 37.1491,-34.5 21.2104,-17.875 39.0624,-32.6161 39.6711,-32.758 1.18,-0.2751 15.6283,20.4645 15.6148,22.4141 -0.01,1.0739 -77.8073,67.3821 -78.9782,67.3124 -0.2914,-0.017 -3.1199,-4.6298 -6.2856,-10.25 z m -38.2442,-46.3676 c -5.5,-4.5831 -10.375,-8.337 -10.8333,-8.3419 -0.4583,-0.01 -0.6833,-0.457 -0.5,-1.0047 0.1833,-0.5476 18.1083,-16.0273 39.8333,-34.3994 l 39.5,-33.40361 9.7547,9.6353 c 5.3651,5.29939 9.6401,9.91271 9.5,10.25181 -0.14,0.3392 -15.1047,13.1287 -33.2547,28.4212 -18.15,15.2925 -35.475,29.9127 -38.5,32.4894 l -5.5,4.6849 -10,-8.333 z"
       id="path3266"
       inkscape:connector-curvature="0" />
    <g
       style="font-size:40px;font-style:normal;font-weight:normal;line-height:125%;letter-spacing:0px;word-spacing:0px;fill:#f8f8f8;fill-opacity:1;stroke:none;font-family:Sans"
       id="text4036">
      <path
         d="m 673.98635,1045.3937 -19.928,0 c -22.55998,8.272 -49.63202,14.664 -68.432,16.168 l 0,30.456 5.264,0.752 c 18.79998,2.632 22.184,7.52 22.184,30.456 l 0,13.16 c -12.78399,-7.144 -28.20002,-10.904 -43.24,-10.904 -50.38395,0 -89.112,43.24 -89.112,100.016 0,32.3359 13.16002,61.664 36.096,79.336 14.28798,11.28 29.32802,16.168 50.008,16.168 21.80797,0 37.97601,-5.64 51.888,-17.672 l 0,14.288 84.224,0 0,-30.456 -12.408,-2.632 c -14.28799,-3.008 -16.544,-6.768 -16.544,-28.576 l 0,-210.56 m -60.912,220.336 c -8.272,9.776 -21.80802,15.792 -33.84,15.792 -20.30398,0 -34.592,-22.9361 -34.592,-55.272 0,-36.472 15.04002,-60.16 38.352,-60.16 11.27998,0 21.432,3.76 30.08,10.904 l 0,88.736"
         style="font-size:376px;font-variant:normal;font-weight:bold;font-stretch:normal;text-align:start;line-height:125%;writing-mode:lr-tb;text-anchor:start;font-family:URW Bookman L;-inkscape-font-specification:URW Bookman L Bold;fill:#f8f8f8;fill-opacity:1"
         id="path2990" />
      <path
         d="m 800.18135,1128.8657 -23.312,0 -58.656,10.904 0,30.456 6.768,0.752 c 16.54398,1.88 20.68,7.896 20.68,30.832 l 0,54.144 c 0,21.432 -2.25602,25.192 -16.544,28.576 l -10.904,2.632 0,30.456 115.808,0 0,-30.456 -10.904,-2.632 c -14.28799,-3.384 -16.544,-7.144 -16.544,-28.576 l 0,-72.944 c 5.26399,-4.512 9.024,-6.016 15.04,-6.016 4.51199,0 4.512,0 13.16,5.64 6.76799,4.512 12.032,6.016 19.176,6.016 16.91998,0 29.704,-12.032 29.704,-28.576 0,-19.552 -14.66402,-34.592 -33.84,-34.592 -15.41599,0 -24.81603,4.136 -49.632,21.808 l 0,-18.424"
         style="font-size:376px;font-variant:normal;font-weight:bold;font-stretch:normal;text-align:start;line-height:125%;writing-mode:lr-tb;text-anchor:start;font-family:URW Bookman L;-inkscape-font-specification:URW Bookman L Bold;fill:#f8f8f8;fill-opacity:1"
         id="path2992" />
      <path
         d="m 981.01385,1128.8657 -23.312,0 -66.176,10.904 0,30.456 7.896,0.752 c 16.16798,1.504 20.68,7.896 20.68,30.832 l 0,54.144 c 0,21.432 -2.25602,25.568 -16.544,28.576 l -12.032,2.632 0,30.456 117.68795,0 0,-30.456 -11.65595,-2.632 c -14.28799,-3.384 -16.544,-7.144 -16.544,-28.576 l 0,-127.088 m -32.712,-85.728 c -19.92798,0 -37.224,16.92 -37.224,36.848 0,19.928 15.79202,36.096 35.72,36.096 20.30397,0 37.224,-16.92 37.224,-37.224 0,-19.928 -15.41603,-35.72 -35.72,-35.72"
         style="font-size:376px;font-variant:normal;font-weight:bold;font-stretch:normal;text-align:start;line-height:125%;writing-mode:lr-tb;text-anchor:start;font-family:URW Bookman L;-inkscape-font-specification:URW Bookman L Bold;fill:#f8f8f8;fill-opacity:1"
         id="path2994" />
      <path
         d="m 1241.3468,1128.8657 -96.256,0 0,30.456 c 14.288,3.384 19.928,6.768 19.928,12.408 0,2.632 -0.376,3.76 -4.512,15.416 l -22.936,60.16 -24.44,-62.792 c 0,-0.752 -0.752,-2.256 -1.504,-4.136 -1.88,-4.512 -2.632,-6.768 -2.632,-8.272 0,-7.52 7.1441,-11.656 21.432,-12.784 l 0,-30.456 -114.304,0 0,30.456 c 19.928,6.016 20.3041,6.392 32.712,33.088 l 58.28,125.208 37.976,0 53.768,-114.304 c 14.288,-29.704 16.1681,-31.584 42.488,-43.992 l 0,-30.456"
         style="font-size:376px;font-variant:normal;font-weight:bold;font-stretch:normal;text-align:start;line-height:125%;writing-mode:lr-tb;text-anchor:start;font-family:URW Bookman L;-inkscape-font-specification:URW Bookman L Bold;fill:#f8f8f8;fill-opacity:1"
         id="path2996" />
      <path
         d="m 1334.072,1128.8657 -23.312,0 -58.656,10.904 0,30.456 6.768,0.752 c 16.544,1.88 20.68,7.896 20.68,30.832 l 0,54.144 c 0,21.432 -2.256,25.192 -16.544,28.576 l -10.904,2.632 0,30.456 111.672,0 0,-30.456 -6.768,-1.88 c -14.288,-4.136 -16.544,-7.896 -16.544,-29.328 l 0,-73.32 c 15.04,-10.152 31.584,-16.544 42.864,-16.544 11.28,0 16.92,8.272 16.92,24.064 l 0,65.8 c 0,21.432 -2.256,25.192 -16.544,29.328 l -6.768,1.88 0,30.456 112.048,0 0,-30.456 -11.28,-2.632 c -14.288,-3.384 -16.544,-7.144 -16.544,-28.576 l 0,-70.688 c 0,-20.304 -3.384,-30.832 -13.912,-42.112 -11.28,-12.408 -24.4401,-17.672 -44.744,-17.672 -23.688,0 -43.9921,6.016 -68.432,19.552 l 0,-16.168"
         style="font-size:376px;font-variant:normal;font-weight:bold;font-stretch:normal;text-align:start;line-height:125%;writing-mode:lr-tb;text-anchor:start;font-family:URW Bookman L;-inkscape-font-specification:URW Bookman L Bold;fill:#f8f8f8;fill-opacity:1"
         id="path2998" />
      <path
         d="m 1699.4265,1276.2577 c -0.752,0.752 -1.504,1.504 -2.632,2.256 -3.008,3.008 -4.888,4.136 -6.768,4.136 -2.632,0 -5.64,-1.88 -6.392,-4.136 -1.128,-2.632 -1.128,-2.632 -1.504,-16.92 l 0,-74.072 c 0,-19.928 -4.136,-31.96 -14.288,-41.736 -13.16,-12.784 -38.3521,-20.304 -67.68,-20.304 -48.504,0 -83.472,21.808 -83.472,51.888 0,15.792 12.032,28.2 27.824,28.2 9.024,0 18.424,-3.76 23.688,-10.152 3.76,-4.512 5.264,-9.776 5.264,-18.8 0,-5.264 1.128,-7.896 3.384,-9.776 4.512,-4.136 12.784,-6.768 20.68,-6.768 16.168,0 23.688,6.768 23.688,20.304 l 0,19.176 c -20.68,1.88 -38.728,5.264 -54.896,10.152 -37.6,11.28 -56.4,31.208 -56.4,59.784 0,30.8319 24.064,51.512 59.784,51.512 21.0559,0 40.984,-6.392 59.784,-19.176 9.024,11.656 25.944,19.176 43.24,19.176 16.92,0 30.832,-5.64 47.752,-19.176 l -21.056,-25.568 m -78.208,-9.024 c -9.776,9.024 -19.176,13.16 -29.704,13.16 -10.528,0 -17.672,-7.52 -17.672,-18.8 0,-15.792 14.664,-25.944 47.376,-31.96 l 0,37.6"
         style="font-size:376px;font-variant:normal;font-weight:bold;font-stretch:normal;text-align:start;line-height:125%;writing-mode:lr-tb;text-anchor:start;font-family:URW Bookman L;-inkscape-font-specification:URW Bookman L Bold;fill:#f8f8f8;fill-opacity:1"
         id="path3000" />
      <path
         d="m 1810.3758,1045.3937 -24.816,0 c -23.3119,10.152 -39.48,13.912 -64.672,16.168 l 0,30.456 6.392,0.752 c 7.144,0.752 14.288,3.76 17.296,6.768 3.76,3.76 4.888,9.024 4.888,23.688 l 0,132.728 c 0,21.432 -2.256,25.568 -16.544,28.576 l -12.032,2.632 0,30.456 117.688,0 0,-30.456 -11.656,-2.632 c -14.2879,-3.384 -16.544,-7.144 -16.544,-28.576 l 0,-210.56"
         style="font-size:376px;font-variant:normal;font-weight:bold;font-stretch:normal;text-align:start;line-height:125%;writing-mode:lr-tb;text-anchor:start;font-family:URW Bookman L;-inkscape-font-specification:URW Bookman L Bold;fill:#f8f8f8;fill-opacity:1"
         id="path3002" />
    </g>
    <flowRoot
       xml:space="preserve"
       id="flowRoot4040"
       style="font-size:40px;font-style:normal;font-weight:normal;line-height:125%;letter-spacing:0px;word-spacing:0px;fill:#000000;fill-opacity:1;stroke:none;font-family:Sans"
       transform="translate(326.38104,910.2226)"><flowRegion
         id="flowRegion4042"><rect
           id="rect4044"
           width="60.609154"
           height="76.771591"
           x="347.49246"
           y="-394.5434" /></flowRegion><flowPara
         id="flowPara4046" /></flowRoot>  </g>
</svg>
