<?xml version="1.0" encoding="UTF-8" standalone="no"?>
<!-- Created with Inkscape (http://www.inkscape.org/) -->

<svg
   xmlns:dc="http://purl.org/dc/elements/1.1/"
   xmlns:cc="http://creativecommons.org/ns#"
   xmlns:rdf="http://www.w3.org/1999/02/22-rdf-syntax-ns#"
   xmlns:svg="http://www.w3.org/2000/svg"
   xmlns="http://www.w3.org/2000/svg"
   xmlns:sodipodi="http://sodipodi.sourceforge.net/DTD/sodipodi-0.dtd"
   xmlns:inkscape="http://www.inkscape.org/namespaces/inkscape"
   width="1500.1702"
   height="544.79584"
   viewBox="0 0 1500.1702 544.79584"
   id="svg2"
   version="1.1"
   inkscape:version="0.48.4 r9939"
   sodipodi:docname="drivnal.svg">
  <defs
     id="defs4" />
  <sodipodi:namedview
     id="base"
     pagecolor="#212121"
     bordercolor="#666666"
     borderopacity="1.0"
     inkscape:pageopacity="1"
     inkscape:pageshadow="2"
     inkscape:zoom="0.35"
     inkscape:cx="958.31828"
     inkscape:cy="200.00353"
     inkscape:document-units="px"
     inkscape:current-layer="layer1"
     showgrid="false"
     fit-margin-top="0"
     fit-margin-left="0"
     fit-margin-right="0"
     fit-margin-bottom="0"
     inkscape:window-width="1914"
     inkscape:window-height="998"
     inkscape:window-x="0"
     inkscape:window-y="27"
     inkscape:window-maximized="1" />
  <metadata
     id="metadata7">
    <rdf:RDF>
      <cc:Work
         rdf:about="">
        <dc:format>image/svg+xml</dc:format>
        <dc:type
           rdf:resource="http://purl.org/dc/dcmitype/StillImage" />
        <dc:title />
      </cc:Work>
    </rdf:RDF>
  </metadata>
  <g
     inkscape:label="Layer 1"
     inkscape:groupmode="layer"
     id="layer1"
     transform="translate(-338.40569,-915.98059)">
    <path
       style="fill:#464646;fill-opacity:1"
       d="m 580.86591,1459.7674 c -12.68424,-1.274 -35.96729,-6.0942 -50.04557,-10.3607 -32.36323,-9.8078 -64.55007,-26.8949 -91.35093,-48.4955 -12.61201,-10.1649 -36.81441,-35.0147 -45.74662,-46.9704 -30.85696,-41.3016 -49.558,-88.6341 -54.29606,-137.4237 -1.36139,-14.0187 -1.36139,-42.1338 0,-56.1526 4.73806,-48.7895 23.4391,-96.122 54.29606,-137.4237 8.93221,-11.9556 33.13461,-36.80551 45.74662,-46.97031 40.74674,-32.84064 92.17927,-54.00246 143.32018,-58.96886 14.01878,-1.36139 42.13386,-1.36139 56.15264,0 39.87814,3.87265 84.99764,19.39423 117.50434,40.42275 l 7.2021,4.65901 -3.3914,2.809 c -1.8652,1.5449 -20.4914,17.2755 -41.3914,34.95689 -28.8931,24.44352 -38.4793,32.02762 -40,31.64612 -1.1,-0.2759 -7.85,-2.506 -14.99996,-4.9558 -35.07375,-12.0174 -68.47162,-12.1991 -104.84586,-0.5704 -52.08629,16.6517 -93.97411,58.5395 -110.62579,110.6258 -11.4393,35.782 -11.44397,67.895 -0.0151,103.6445 16.66759,52.136 58.53416,94.0148 110.64088,110.673 35.78201,11.4393 67.89508,11.4439 103.6445,0.015 52.15653,-16.6741 94.01403,-58.5316 110.68813,-110.6881 9.3685,-29.3047 10.9635,-56.3084 5.0274,-85.1132 l -1.79,-8.6855 2.6379,-2.159 c 1.4509,-1.1875 20.1873,-16.9828 41.6365,-35.1007 l 38.9986,-32.9415 2.8538,6.6006 c 7.3683,17.0423 14.6935,43.4673 18.2369,65.7884 2.1498,13.542 2.978,49.9225 1.5016,65.9584 -4.6104,50.0758 -23.098,97.3945 -54.4463,139.3538 -8.9323,11.9557 -33.1347,36.8055 -45.7467,46.9704 -40.7467,32.8406 -92.1792,54.0024 -143.32015,58.9688 -12.80976,1.244 -45.19567,1.1812 -58.07632,-0.1126 z m 178.24416,-355.1081 c -3.1657,-5.6202 -6.3927,-11.1185 -7.1712,-12.2185 -1.338,-1.8908 0.6905,-3.7746 37.1491,-34.5 21.2104,-17.875 39.0624,-32.6161 39.6711,-32.758 1.18,-0.2751 15.6283,20.4645 15.6148,22.4141 -0.01,1.0739 -77.8073,67.3821 -78.9782,67.3124 -0.2914,-0.017 -3.1199,-4.6298 -6.2856,-10.25 z m -38.2442,-46.3676 c -5.5,-4.5831 -10.375,-8.337 -10.8333,-8.3419 -0.4583,-0.01 -0.6833,-0.457 -0.5,-1.0047 0.1833,-0.5476 18.1083,-16.0273 39.8333,-34.3994 l 39.5,-33.40361 9.7547,9.6353 c 5.3651,5.29939 9.6401,9.91271 9.5,10.25181 -0.14,0.3392 -15.1047,13.1287 -33.2547,28.4212 -18.15,15.2925 -35.475,29.9127 -38.5,32.4894 l -5.5,4.6849 -10,-8.333 z"
       id="path3266"
       inkscape:connector-curvature="0" />
    <text
       xml:space="preserve"
       style="font-size:40px;font-style:normal;font-weight:normal;line-height:125%;letter-spacing:0px;word-spacing:0px;fill:#000000;fill-opacity:1;stroke:none;font-family:Sans"
       x="469.06635"
       y="1317.6177"
       id="text4036"
       sodipodi:linespacing="125%"><tspan
         sodipodi:role="line"
         id="tspan4038"
         x="469.06635"
         y="1317.6177"
         style="font-size:376px;font-style:normal;font-variant:normal;font-weight:bold;font-stretch:normal;text-align:start;line-height:125%;writing-mode:lr-tb;text-anchor:start;fill:#f8f8f8;fill-opacity:1;font-family:URW Bookman L;-inkscape-font-specification:URW Bookman L Bold">drivnal</tspan></text>
    <flowRoot
       xml:space="preserve"
       id="flowRoot4040"
       style="font-size:40px;font-style:normal;font-weight:normal;line-height:125%;letter-spacing:0px;word-spacing:0px;fill:#000000;fill-opacity:1;stroke:none;font-family:Sans"
       transform="translate(326.38104,910.2226)"><flowRegion
         id="flowRegion4042"><rect
           id="rect4044"
           width="60.609154"
           height="76.771591"
           x="347.49246"
           y="-394.5434" /></flowRegion><flowPara
         id="flowPara4046" /></flowRoot>  </g>
</svg>
